<?xml version="1.0" encoding="utf-8"?>
<?xml-stylesheet type="text/xsl" href="rss1.xsl"?>
<rss version="2.0" xmlns:atom="http://www.w3.org/2005/Atom" xmlns:content="http://purl.org/rss/1.0/modules/content/" xmlns:dc="http://purl.org/dc/elements/1.1/" xmlns:media="http://search.yahoo.com/mrss/">
<channel>
 <title>Getty</title>
 <link>http://www.gettyimg.com/</link>
 <atom:link href="http://www.gettyimg.com/" rel="self" type="application/rss+xml" />

 
                <item>
                <title><![CDATA[【Interviews / TV shows / Others】HDTV - Intimissimi by JLO 10-25-2023 HDMania HDTV 720p]]></title>
                <link><![CDATA[https://sharemania.us/threads/intimissimi-by-jlo-10-25-2023-hdmania-hdtv-720p.231563/]]></link>
                <description><![CDATA[<article>
<blockquote class="messageText SelectQuoteContainer ugc baseHtml">
<div style="text-align: center"><br>
<img src="https://i.imgur.com/U2ns4sp.jpg" class="bbCodeImage LbImage" alt="[​IMG]" data-url="https://i.imgur.com/U2ns4sp.jpg" style=""><br>
<br>
<div class="ToggleTriggerAnchor bbCodeSpoilerContainer">
<button type="button" class="button bbCodeSpoilerButton ToggleTrigger Tooltip JsOnly" data-target="> .SpoilerTarget"><span>Spoiler: <span class="SpoilerTitle">MediaInfo.</span></span></button>
<div class="SpoilerTarget bbCodeSpoilerText">General<br>
ID : 1 (0x1)<br>
Complete name : C:\Users\moham\Desktop\Intimissimi by JLO 10-25-2023 HDMania HDTV 720p.ts<br>
Format : MPEG-TS<br>
File size : 29.5 MiB<br>
Duration : 30 s 654 ms<br>
Overall bit rate mode : Variable<br>
Overall bit rate : 8 066 kb/s<br>
Movie name : The Masked Singer<br>
Law rating : TV-PG (D)<br>
<br>
Video<br>
ID : 49 (0x31)<br>
Menu ID : 3 (0x3)<br>
Format : MPEG Video<br>
Commercial name : HDV 720p<br>
Format version : Version 2<br>
Format profile : Main@High<br>
Format settings : CustomMatrix / BVOP<br>
Format settings, BVOP : Yes<br>
Format settings, Matrix : Custom<br>
Format settings, GOP : Variable<br>
Codec ID : 2<br>
Duration : 30 s 414 ms<br>
Bit rate mode : Variable<br>
Bit rate : 7 021 kb/s<br>
Maximum bit rate : 14.7 Mb/s<br>
Width : 1 280 pixels<br>
Height : 720 pixels<br>
Display aspect ratio : 16:9<br>
Active Format Description : Full frame 16:9 image<br>
Frame rate : 59.940 (60000/1001) FPS<br>
Color space : YUV<br>
Chroma subsampling : 4:2:0<br>
Bit depth : 8 bits<br>
Scan type : Progressive<br>
Compression mode : Lossy<br>
Bits/(Pixel*Frame) : 0.127<br>
Time code of first frame : 00:00:00;00<br>
Time code source : Group of pictures header<br>
GOP, Open/Closed : Open<br>
GOP, Open/Closed of first f : Closed<br>
Stream size : 25.5 MiB (86%)<br>
<br>
Audio #1<br>
ID : 52 (0x34)<br>
Menu ID : 3 (0x3)<br>
Format : AC-3<br>
Format/Info : Audio Coding 3<br>
Commercial name : Dolby Digital<br>
Codec ID : 129<br>
Duration : 30 s 400 ms<br>
Bit rate mode : Constant<br>
Bit rate : 448 kb/s<br>
Channel(s) : 6 channels<br>
Channel layout : L R C LFE Ls Rs<br>
Sampling rate : 48.0 kHz<br>
Frame rate : 31.250 FPS (1536 SPF)<br>
Bit depth : 16 bits<br>
Compression mode : Lossy<br>
Delay relative to video : 29 ms<br>
Stream size : 1.62 MiB (6%)<br>
Language : English<br>
Service kind : Complete Main<br>
<br>
Audio #2<br>
ID : 53 (0x35)<br>
Menu ID : 3 (0x3)<br>
Format : AC-3<br>
Format/Info : Audio Coding 3<br>
Commercial name : Dolby Digital<br>
Codec ID : 129<br>
Duration : 30 s 400 ms<br>
Bit rate mode : Constant<br>
Bit rate : 192 kb/s<br>
Channel(s) : 2 channels<br>
Channel layout : L R<br>
Sampling rate : 48.0 kHz<br>
Frame rate : 31.250 FPS (1536 SPF)<br>
Bit depth : 16 bits<br>
Compression mode : Lossy<br>
Delay relative to video : 29 ms<br>
Stream size : 713 KiB (2%)<br>
Language : Spanish<br>
Service kind : Complete Main<br>
<br>
Text #1<br>
ID : 49 (0x31)-CC1<br>
Menu ID : 3 (0x3)<br>
Format : EIA-608<br>
Muxing mode : A/53 / DTVCC Transport<br>
Muxing mode, more info : Muxed in Video #1<br>
Duration : 30 s 414 ms<br>
Bit rate mode : Constant<br>
Stream size : 0.00 Byte (0%)<br>
CaptionServiceName : CC1<br>
<br>
Text #2<br>
ID : 49 (0x31)-1<br>
Menu ID : 3 (0x3)<br>
Format : EIA-708<br>
Muxing mode : A/53 / DTVCC Transport<br>
Muxing mode, more info : Muxed in Video #1<br>
Duration : 30 s 414 ms<br>
Bit rate mode : Constant<br>
Stream size : 0.00 Byte (0%)</div>
</div><br>
MEGA Link:<br>
<div class="bbCodeBlock bbCodeVfcHH HiddenContent">
<div class="attribution type">Hidden Content:</div>
<blockquote>You must either reply or click 'Like' to see the hidden information contained here.</blockquote>
</div><b>==============<br>
Capped by me<br>
==============</b><br>
I delete my files after uploading. In case of deletion from MEGA due to any reason, I won't have them anymore.​</div>
<div class="messageTextEndMarker">&nbsp;</div>
</blockquote>
</article>]]></description>
                <author><![CDATA[Scherzyboy]]></author>
                </item>

                </channel></rss>